<svg width="197" height="56" viewBox="0 0 197 56" fill="none" xmlns="http://www.w3.org/2000/svg">
<path d="M-130.901 56H-140.931V42.4219H-176.188V56H-186.217V28.3423C-186.217 24.3049 -185.522 20.5889 -184.134 17.1943C-182.745 13.7998 -180.816 10.881 -178.348 8.43799C-175.879 5.99495 -172.96 4.09196 -169.591 2.729C-166.222 1.36605 -162.545 0.68457 -158.559 0.68457H-135.955C-135.26 0.68457 -134.604 0.813151 -133.987 1.07031C-133.37 1.32747 -132.83 1.6875 -132.367 2.15039C-131.904 2.61328 -131.544 3.15332 -131.287 3.77051C-131.03 4.3877 -130.901 5.04346 -130.901 5.73779V56ZM-176.188 32.3926H-140.931V10.7139H-158.559C-158.868 10.7139 -159.523 10.7653 -160.526 10.8682C-161.504 10.9453 -162.648 11.1639 -163.959 11.5239C-165.245 11.884 -166.608 12.4368 -168.048 13.1826C-169.488 13.9284 -170.813 14.957 -172.021 16.2686C-173.23 17.5801 -174.233 19.2259 -175.03 21.2061C-175.802 23.1605 -176.188 25.5392 -176.188 28.3423V32.3926ZM-63.9365 19.2773C-63.9365 21.5661 -64.2194 23.6105 -64.7852 25.4106C-65.3509 27.2108 -66.1224 28.8052 -67.0996 30.1938C-68.0511 31.5568 -69.1569 32.7269 -70.417 33.7041C-71.6771 34.6813 -73.0015 35.4914 -74.3901 36.1343C-75.7531 36.7515 -77.1418 37.2015 -78.5562 37.4844C-79.9448 37.7673 -81.2563 37.9087 -82.4907 37.9087L-61.5449 56H-77.0518L-97.959 37.9087H-105.172V27.8794H-82.4907C-81.2306 27.7765 -80.0863 27.5194 -79.0576 27.1079C-78.0033 26.6707 -77.1032 26.0921 -76.3574 25.3721C-75.5859 24.652 -74.9945 23.7905 -74.583 22.7876C-74.1715 21.759 -73.9658 20.5889 -73.9658 19.2773V12.9512C-73.9658 12.3854 -74.043 11.9611 -74.1973 11.6782C-74.3258 11.3696 -74.5059 11.151 -74.7373 11.0225C-74.943 10.8682 -75.1745 10.7782 -75.4316 10.7524C-75.6631 10.7267 -75.8817 10.7139 -76.0874 10.7139H-109.184V56H-119.213V5.73779C-119.213 5.04346 -119.085 4.3877 -118.828 3.77051C-118.57 3.15332 -118.223 2.61328 -117.786 2.15039C-117.323 1.6875 -116.783 1.32747 -116.166 1.07031C-115.549 0.813151 -114.88 0.68457 -114.16 0.68457H-76.0874C-73.8501 0.68457 -71.96 1.09603 -70.417 1.91895C-68.874 2.71615 -67.6268 3.73193 -66.6753 4.96631C-65.6981 6.17497 -65.0037 7.48649 -64.5923 8.90088C-64.1551 10.3153 -63.9365 11.6396 -63.9365 12.874V19.2773ZM-4.33936 10.7139H-26.4424V56H-36.4717V10.7139H-58.6133V0.68457H-4.33936V10.7139ZM13.1733 56H3.14404V0.68457H13.1733V56ZM78.0552 39.7217C78.0552 41.7018 77.798 43.4891 77.2837 45.0835C76.7951 46.6522 76.1393 48.0409 75.3164 49.2495C74.4935 50.4582 73.5291 51.4868 72.4233 52.3354C71.3175 53.1841 70.1732 53.8784 68.9902 54.4185C67.8073 54.9585 66.5986 55.3571 65.3643 55.6143C64.1556 55.8714 63.0112 56 61.9312 56H23.2412V45.9707H61.9312C63.8599 45.9707 65.3514 45.4049 66.4058 44.2734C67.4858 43.1419 68.0259 41.6247 68.0259 39.7217C68.0259 38.7959 67.8844 37.9473 67.6016 37.1758C67.3187 36.4043 66.9072 35.7357 66.3672 35.1699C65.8529 34.6042 65.21 34.167 64.4385 33.8584C63.6927 33.5498 62.8569 33.3955 61.9312 33.3955H38.8638C37.2437 33.3955 35.495 33.1126 33.6177 32.5469C31.7404 31.9554 29.9917 31.0168 28.3716 29.731C26.7772 28.4451 25.4399 26.7607 24.3599 24.6777C23.3055 22.5947 22.7783 20.0488 22.7783 17.04C22.7783 14.0312 23.3055 11.4982 24.3599 9.44092C25.4399 7.35791 26.7772 5.6735 28.3716 4.3877C29.9917 3.07617 31.7404 2.13753 33.6177 1.57178C35.495 0.980306 37.2437 0.68457 38.8638 0.68457H73.002V10.7139H38.8638C36.9608 10.7139 35.4692 11.2925 34.3892 12.4497C33.3348 13.6069 32.8076 15.137 32.8076 17.04C32.8076 18.9688 33.3348 20.4989 34.3892 21.6304C35.4692 22.7362 36.9608 23.2891 38.8638 23.2891H61.9312H62.0083C63.0884 23.3148 64.2327 23.4691 65.4414 23.752C66.6501 24.0091 67.8459 24.4206 69.0288 24.9863C70.2375 25.5521 71.3818 26.2721 72.4619 27.1465C73.542 27.9951 74.4935 29.0238 75.3164 30.2324C76.165 31.4411 76.8337 32.8298 77.3223 34.3984C77.8109 35.9671 78.0552 37.7415 78.0552 39.7217ZM135.762 10.7139H113.659V56H103.63V10.7139H81.4883V0.68457H135.762V10.7139ZM196.324 39.7217C196.324 41.7018 196.067 43.4891 195.552 45.0835C195.064 46.6522 194.408 48.0409 193.585 49.2495C192.762 50.4582 191.798 51.4868 190.692 52.3354C189.586 53.1841 188.442 53.8784 187.259 54.4185C186.076 54.9585 184.867 55.3571 183.633 55.6143C182.424 55.8714 181.28 56 180.2 56H141.51V45.9707H180.2C182.128 45.9707 183.62 45.4049 184.674 44.2734C185.754 43.1419 186.294 41.6247 186.294 39.7217C186.294 38.7959 186.153 37.9473 185.87 37.1758C185.587 36.4043 185.176 35.7357 184.636 35.1699C184.121 34.6042 183.479 34.167 182.707 33.8584C181.961 33.5498 181.125 33.3955 180.2 33.3955H157.132C155.512 33.3955 153.764 33.1126 151.886 32.5469C150.009 31.9554 148.26 31.0168 146.64 29.731C145.046 28.4451 143.708 26.7607 142.628 24.6777C141.574 22.5947 141.047 20.0488 141.047 17.04C141.047 14.0312 141.574 11.4982 142.628 9.44092C143.708 7.35791 145.046 5.6735 146.64 4.3877C148.26 3.07617 150.009 2.13753 151.886 1.57178C153.764 0.980306 155.512 0.68457 157.132 0.68457H191.271V10.7139H157.132C155.229 10.7139 153.738 11.2925 152.658 12.4497C151.603 13.6069 151.076 15.137 151.076 17.04C151.076 18.9688 151.603 20.4989 152.658 21.6304C153.738 22.7362 155.229 23.2891 157.132 23.2891H180.2H180.277C181.357 23.3148 182.501 23.4691 183.71 23.752C184.919 24.0091 186.114 24.4206 187.297 24.9863C188.506 25.5521 189.65 26.2721 190.73 27.1465C191.811 27.9951 192.762 29.0238 193.585 30.2324C194.434 31.4411 195.102 32.8298 195.591 34.3984C196.079 35.9671 196.324 37.7415 196.324 39.7217Z" fill="white"/>
</svg>
